<svg width="50" height="50" viewBox="0 0 50 50" fill="none" xmlns="http://www.w3.org/2000/svg">
<circle cx="25" cy="25" r="25" fill="#4F1212"/>
<path d="M24.9888 12.88C27.0768 12.88 28.8768 13.312 30.3888 14.176C31.9008 15.016 33.1608 16.264 34.1688 17.92L31.7568 19.792C30.8688 18.256 29.8608 17.176 28.7328 16.552C27.6288 15.904 26.2848 15.58 24.7008 15.58C22.7808 15.58 21.3768 15.964 20.4888 16.732C19.6008 17.5 19.1568 18.436 19.1568 19.54C19.1568 20.38 19.4208 21.124 19.9488 21.772C20.4768 22.396 21.5328 22.888 23.1168 23.248L28.2648 24.4C30.5448 24.904 32.1288 25.672 33.0168 26.704C33.9288 27.712 34.3848 28.972 34.3848 30.484C34.3848 31.828 34.0008 33.028 33.2328 34.084C32.4888 35.116 31.4328 35.92 30.0648 36.496C28.6968 37.072 27.0888 37.36 25.2408 37.36C22.6728 37.36 20.5488 36.856 18.8688 35.848C17.1888 34.816 15.9048 33.568 15.0168 32.104L17.5368 30.052C18.2328 31.42 19.2168 32.536 20.4888 33.4C21.7848 34.24 23.4288 34.66 25.4208 34.66C27.2688 34.66 28.7208 34.324 29.7768 33.652C30.8568 32.98 31.3968 32.008 31.3968 30.736C31.3968 29.968 31.1448 29.284 30.6408 28.684C30.1368 28.06 29.1888 27.592 27.7968 27.28L22.2168 26.02C20.0088 25.54 18.4368 24.76 17.5008 23.68C16.5888 22.6 16.1328 21.352 16.1328 19.936C16.1328 18.664 16.4808 17.5 17.1768 16.444C17.8968 15.364 18.9168 14.5 20.2368 13.852C21.5808 13.204 23.1648 12.88 24.9888 12.88Z" fill="white"/>
</svg>
