<svg width="40" height="40" viewBox="0 0 40 40" fill="none" xmlns="http://www.w3.org/2000/svg">
<path d="M30.5273 9.47266H9.47266V30.5273H30.5273V9.47266Z" fill="white"/>
<path d="M30.5273 40L40 30.5273H30.5273V40Z" fill="#F72A25"/>
<path d="M40 9.47266H30.5273V30.5273H40V9.47266Z" fill="#FBBC04"/>
<path d="M30.5273 30.5273H9.47266V40H30.5273V30.5273Z" fill="#34A853"/>
<path d="M0 30.5273V36.8424C0 38.5872 1.41276 40 3.15755 40H9.47266V30.5273H0Z" fill="#188038"/>
<path d="M40 9.47266V3.15755C40 1.41276 38.5872 0 36.8424 0H30.5273V9.47266H40Z" fill="#1967D2"/>
<path d="M30.5273 0H3.15755C1.41276 0 0 1.41276 0 3.15755V30.5273H9.47266V9.47266H30.5241V0H30.5273Z" fill="#4285F4"/>
<path d="M13.7924 25.804C13.0046 25.2734 12.461 24.4954 12.1648 23.4701L13.991 22.7181C14.157 23.3496 14.4467 23.8379 14.8601 24.1862C15.2703 24.5345 15.7716 24.7038 16.3543 24.7038C16.9532 24.7038 17.4643 24.5215 17.894 24.1602C18.3237 23.7956 18.5385 23.3333 18.5385 22.7734C18.5385 22.2005 18.3106 21.7318 17.8582 21.3672C17.4057 21.0026 16.836 20.8236 16.1589 20.8236H15.1042V19.0169H16.0515C16.6342 19.0169 17.129 18.8607 17.5294 18.5417C17.9298 18.2259 18.1283 17.793 18.1283 17.2428C18.1283 16.7546 17.9493 16.3639 17.5912 16.071C17.2332 15.778 16.7807 15.6315 16.2306 15.6315C15.6934 15.6315 15.267 15.7747 14.9513 16.0612C14.6355 16.3477 14.3979 16.7122 14.2612 17.1159L12.4545 16.3639C12.6954 15.6836 13.1348 15.0846 13.7794 14.5671C14.4239 14.0495 15.2475 13.7891 16.2468 13.7891C16.9858 13.7891 17.6531 13.9323 18.2423 14.2187C18.8315 14.5052 19.2937 14.9023 19.629 15.4069C19.9643 15.9147 20.1303 16.4844 20.1303 17.1159C20.1303 17.7604 19.974 18.304 19.6648 18.7533C19.3556 19.1992 18.9714 19.5443 18.519 19.7819V19.8893C19.1016 20.1302 19.6127 20.5273 19.9871 21.0352C20.3679 21.5495 20.56 22.1615 20.56 22.8776C20.56 23.5937 20.3777 24.2318 20.0164 24.7917C19.6518 25.3516 19.1505 25.7943 18.5125 26.1165C17.8744 26.4388 17.155 26.6016 16.3575 26.6016C15.433 26.6016 14.5802 26.3379 13.7924 25.804ZM25.0099 16.7415L23.0046 18.1901L22.002 16.6699L25.599 14.0755H26.9793V26.3151H25.0099V16.7415Z" fill="#1A73E8"/>
</svg>
