<svg width="40" height="40" viewBox="0 0 40 40" fill="none" xmlns="http://www.w3.org/2000/svg">
<path d="M20 40C31.0457 40 40 31.0457 40 20C40 8.9543 31.0457 0 20 0C8.9543 0 0 8.9543 0 20C0 31.0457 8.9543 40 20 40Z" fill="#1972E6"/>
<path d="M29.5956 28.6919V26.9966C29.5956 26.4114 29.389 25.8348 29.0104 25.3873C28.6576 24.9656 28.2014 24.475 27.8314 24.191C26.1963 22.9518 23.8038 22.1601 20.9897 21.9277C19.9656 21.8416 19.5956 21.8502 18.5371 21.9707C15.1636 22.358 12.5818 23.5284 11.2393 25.2754C11.1877 25.3442 11.136 25.4045 11.093 25.4647C10.7574 25.9036 10.5767 26.4372 10.5767 26.9879V28.7005C10.5767 30.1549 11.7557 31.3339 13.21 31.3339H26.9708C28.4166 31.3167 29.5956 30.1377 29.5956 28.6919Z" fill="#1759BB"/>
<path d="M20.0001 19.4062C22.424 19.4062 24.3891 17.4412 24.3891 15.0172C24.3891 12.5932 22.424 10.6282 20.0001 10.6282C17.5761 10.6282 15.6111 12.5932 15.6111 15.0172C15.6111 17.4412 17.5761 19.4062 20.0001 19.4062Z" fill="#1759BB"/>
<path d="M29.5956 27.5732V25.8778C29.5956 25.2926 29.389 24.716 29.0104 24.2685C28.6576 23.8468 28.2014 23.3563 27.8314 23.0723C26.1963 21.833 23.8038 21.0413 20.9897 20.809C19.9656 20.7229 19.5956 20.7315 18.5371 20.852C15.1636 21.2392 12.5818 22.4096 11.2393 24.1566C11.1877 24.2255 11.136 24.2857 11.093 24.346C10.7574 24.7849 10.5767 25.3184 10.5767 25.8692V27.5818C10.5767 29.0361 11.7557 30.2151 13.21 30.2151H26.9708C28.4166 30.2065 29.5956 29.0275 29.5956 27.5732Z" fill="white"/>
<path d="M20.0001 18.2874C22.424 18.2874 24.3891 16.3224 24.3891 13.8984C24.3891 11.4745 22.424 9.50946 20.0001 9.50946C17.5761 9.50946 15.6111 11.4745 15.6111 13.8984C15.6111 16.3224 17.5761 18.2874 20.0001 18.2874Z" fill="white"/>
</svg>
