<svg width="40" height="40" viewBox="0 0 40 40" fill="none" xmlns="http://www.w3.org/2000/svg">
<rect width="40" height="40" rx="2" fill="#FBBC05"/>
<path d="M16.1667 32.9011C16.1667 33.6024 16.7445 34.3037 17.6111 34.3037H23.3889C24.2556 34.3037 24.8334 33.6024 24.8334 32.9011V31.4985H16.1667V32.9011ZM20.5 6.25186C14.8667 6.25186 10.3889 10.5999 10.3889 16.07C10.3889 19.4362 12.1222 22.3817 14.7222 24.0648V27.2907C14.7222 27.992 15.3 28.6933 16.1667 28.6933H24.8334C25.7 28.6933 26.2778 27.992 26.2778 27.2907V24.0648C28.8778 22.2414 30.6111 19.296 30.6111 16.07C30.6111 10.5999 26.1334 6.25186 20.5 6.25186Z" fill="white"/>
</svg>
