<svg width="40" height="40" viewBox="0 0 40 40" fill="none" xmlns="http://www.w3.org/2000/svg">
<circle cx="20" cy="20" r="20" fill="#4285F4"/>
<path d="M28.7412 8.47652C30.0428 6.92525 32.3556 6.7229 33.9069 8.02459C35.4581 9.32625 35.6605 11.639 34.3589 13.1903L17.8605 32.852C16.5588 34.4034 14.2462 34.6058 12.6949 33.3041C11.1436 32.0025 10.9413 29.6895 12.2429 28.1383L28.7412 8.47652Z" fill="white"/>
<path d="M3.5 21.3559C3.5 19.331 5.14162 17.6893 7.16667 17.6893C9.19171 17.6893 10.8333 19.331 10.8333 21.3559C10.8333 23.381 9.19171 25.0226 7.16667 25.0226C5.14162 25.0226 3.5 23.381 3.5 21.3559Z" fill="#FBBC05"/>
</svg>
