<svg width="24" height="27" viewBox="0 0 24 27" fill="none" xmlns="http://www.w3.org/2000/svg">
<path d="M21.9169 20.8161V18.8624C21.9169 18.188 21.6789 17.5236 21.2425 17.0079C20.8359 16.522 20.3103 15.9567 19.8839 15.6294C17.9996 14.2013 15.2427 13.289 11.9997 13.0212C10.8196 12.922 10.3932 12.9319 9.17336 13.0708C5.28584 13.5171 2.3107 14.8658 0.763621 16.879C0.704118 16.9583 0.644614 17.0277 0.595028 17.0972C0.208259 17.6029 0 18.2178 0 18.8525V20.826C0 22.502 1.35865 23.8607 3.03465 23.8607H18.8922C20.5582 23.8408 21.9169 22.4822 21.9169 20.8161Z" fill="black"/>
<path d="M10.8593 10.1155C13.6526 10.1155 15.917 7.85106 15.917 5.05774C15.917 2.26443 13.6526 0 10.8593 0C8.06594 0 5.80151 2.26443 5.80151 5.05774C5.80151 7.85106 8.06594 10.1155 10.8593 10.1155Z" fill="black"/>
<circle cx="17.418" cy="20.418" r="5.918" fill="black" stroke="white"/>
<rect x="15" y="20" width="5" height="1" fill="white"/>
</svg>
